<svg width="61" height="61" viewBox="0 0 61 61" fill="none" xmlns="http://www.w3.org/2000/svg">
<g id="Frame 2">
<path id="Vector" d="M30.4172 0.14389C24.4411 0.14389 18.5992 1.91602 13.6302 5.23618C8.66127 8.55633 4.78844 13.2754 2.50147 18.7966C0.214508 24.3178 -0.383866 30.3932 0.782018 36.2545C1.9479 42.1158 4.82568 47.4998 9.05144 51.7255C13.2772 55.9513 18.6611 58.8291 24.5224 59.9949C30.3837 61.1608 36.4591 60.5625 41.9803 58.2755C47.5016 55.9885 52.2206 52.1157 55.5408 47.1467C58.8609 42.1778 60.6331 36.3358 60.6331 30.3597C60.6331 22.346 57.4496 14.6605 51.7831 8.9939C46.1165 3.32733 38.431 0.14389 30.4172 0.14389ZM44.2941 43.7263C44.0329 44.1524 43.6135 44.4576 43.1277 44.575C42.6419 44.6925 42.1293 44.6126 41.7023 44.353C34.6072 40.0154 25.6767 39.035 15.1571 41.4388C14.6803 41.524 14.1891 41.4223 13.7852 41.1549C13.3814 40.8875 13.096 40.4749 12.9883 40.0027C12.8807 39.5304 12.9589 39.0349 13.2069 38.6188C13.4548 38.2028 13.8535 37.8982 14.3201 37.7682C25.8289 35.1361 35.7039 36.2686 43.6674 41.1345C44.0905 41.3986 44.392 41.8193 44.506 42.3049C44.6201 42.7905 44.5375 43.3014 44.2762 43.7263H44.2941ZM47.9917 35.4942C47.6648 36.0268 47.1399 36.4079 46.5323 36.554C45.9247 36.7 45.2839 36.599 44.7507 36.2731C36.6305 31.2818 24.2487 29.836 14.6424 32.7501C14.0446 32.9318 13.3991 32.8685 12.848 32.5743C12.2969 32.28 11.8852 31.7789 11.7036 31.1811C11.5219 30.5834 11.5852 29.9379 11.8794 29.3868C12.1737 28.8357 12.6748 28.424 13.2726 28.2424C24.2443 24.9119 37.8929 26.5279 47.2128 32.2711C47.7393 32.5992 48.1148 33.1221 48.2574 33.7258C48.4 34.3296 48.298 34.9653 47.9738 35.4942H47.9917ZM48.3095 26.9308C38.5509 21.1428 22.485 20.6145 13.183 23.4347C12.8268 23.5423 12.4529 23.5786 12.0826 23.5417C11.7123 23.5048 11.3529 23.3952 11.0249 23.2194C10.3626 22.8643 9.86841 22.2606 9.65115 21.5412C9.54357 21.1849 9.50721 20.811 9.54415 20.4407C9.58109 20.0704 9.6906 19.711 9.86643 19.3831C10.0423 19.0551 10.281 18.765 10.5689 18.5293C10.8569 18.2935 11.1884 18.1169 11.5447 18.0093C22.2209 14.7683 39.961 15.395 51.1744 22.0381C51.4936 22.2273 51.7724 22.4776 51.9949 22.7747C52.2173 23.0717 52.3791 23.4097 52.471 23.7692C52.5628 24.1288 52.583 24.5029 52.5303 24.8702C52.4775 25.2376 52.353 25.5909 52.1637 25.9102C51.9744 26.2294 51.7241 26.5082 51.4271 26.7306C51.13 26.9531 50.7921 27.1149 50.4325 27.2067C50.073 27.2986 49.6988 27.3187 49.3315 27.266C48.9642 27.2133 48.6108 27.0887 48.2916 26.8994L48.3095 26.9308Z" fill="#7BD568"/>
<path id="Vector_2" d="M44.2763 43.7264C44.0151 44.1525 43.5956 44.4577 43.1098 44.5751C42.6241 44.6926 42.1115 44.6128 41.6845 44.3531C34.5893 40.0155 25.6589 39.0351 15.1393 41.439C14.6625 41.5241 14.1712 41.4225 13.7674 41.1551C13.3636 40.8876 13.0782 40.475 12.9705 40.0028C12.8628 39.5306 12.9411 39.035 13.189 38.619C13.437 38.2029 13.8356 37.8983 14.3022 37.7683C25.8111 35.1362 35.6861 36.2687 43.6496 41.1346C44.0757 41.3958 44.3809 41.8153 44.4983 42.301C44.6158 42.7868 44.536 43.2994 44.2763 43.7264Z" fill="#010201"/>
<path id="Vector_3" d="M47.9738 35.4943C47.647 36.0269 47.1221 36.408 46.5145 36.5541C45.9069 36.7001 45.2661 36.5991 44.7329 36.2732C36.6127 31.282 24.2309 29.8361 14.6245 32.7502C14.0268 32.9319 13.3813 32.8686 12.8302 32.5744C12.2791 32.2801 11.8674 31.779 11.6858 31.1812C11.5041 30.5835 11.5674 29.938 11.8616 29.3869C12.1558 28.8358 12.657 28.4241 13.2547 28.2425C24.2264 24.912 37.875 26.528 47.1949 32.2713C47.7245 32.5964 48.1037 33.118 48.2497 33.722C48.3957 34.326 48.2965 34.9632 47.9738 35.4943Z" fill="#010201"/>
<path id="Vector_4" d="M48.2917 26.9309C38.551 21.1429 22.4852 20.6147 13.1832 23.4349C12.8269 23.5424 12.453 23.5788 12.0827 23.5419C11.7124 23.5049 11.353 23.3954 11.025 23.2196C10.3627 22.8645 9.86853 22.2608 9.65126 21.5413C9.54369 21.1851 9.50733 20.8112 9.54427 20.4409C9.58121 20.0706 9.69072 19.7112 9.86655 19.3832C10.0424 19.0553 10.2811 18.7651 10.569 18.5294C10.857 18.2937 11.1886 18.117 11.5448 18.0094C22.221 14.7685 39.9611 15.3952 51.1745 22.0382C51.4937 22.2275 51.7725 22.4778 51.995 22.7749C52.2175 23.0719 52.3792 23.4098 52.4711 23.7694C52.563 24.1289 52.5831 24.5031 52.5304 24.8704C52.4777 25.2378 52.3531 25.5911 52.1638 25.9103C51.9745 26.2295 51.7242 26.5083 51.4272 26.7308C51.1301 26.9533 50.7922 27.115 50.4326 27.2069C50.0731 27.2988 49.699 27.3189 49.3316 27.2662C48.9643 27.2135 48.6109 27.0889 48.2917 26.8996V26.9309Z" fill="#010201"/>
</g>
</svg>
