<svg width="62" height="61" viewBox="0 0 62 61" fill="none" xmlns="http://www.w3.org/2000/svg">
<g id="Frame 1">
<path id="Vector" d="M30.9209 60.3652C47.6087 60.3652 61.1367 47.0453 61.1367 30.6143C61.1367 14.1833 47.6087 0.863312 30.9209 0.863312C14.2332 0.863312 0.705078 14.1833 0.705078 30.6143C0.705078 47.0453 14.2332 60.3652 30.9209 60.3652Z" fill="#DA0000"/>
<path id="Vector_2" d="M50.2188 21.0676C49.9906 20.2212 49.5391 19.4493 48.9102 18.83C48.2813 18.2108 47.4973 17.7663 46.6377 17.5415C43.5176 16.7305 30.921 16.7305 30.921 16.7305C30.921 16.7305 18.3199 16.7305 15.1774 17.5592C14.3219 17.7873 13.5426 18.2333 12.9179 18.8523C12.2931 19.4713 11.845 20.2415 11.6187 21.0852C10.7771 24.1705 10.7771 30.632 10.7771 30.632C10.7771 30.632 10.7771 37.0846 11.6187 40.1787C11.845 41.0225 12.2931 41.7926 12.9179 42.4116C13.5426 43.0306 14.3219 43.4766 15.1774 43.7048C18.3109 44.5334 30.921 44.5334 30.921 44.5334C30.921 44.5334 43.5176 44.5334 46.6601 43.7048C47.5197 43.48 48.3037 43.0355 48.9326 42.4163C49.5615 41.797 50.0129 41.0251 50.2412 40.1787C51.0872 37.0934 51.0872 30.632 51.0872 30.632C51.0872 30.632 51.0649 24.1617 50.2188 21.0676ZM26.8922 36.5645V24.6641L37.3536 30.6143L26.8922 36.5645Z" fill="white"/>
</g>
</svg>
